<svg xmlns="http://www.w3.org/2000/svg" xmlns:xlink="http://www.w3.org/1999/xlink" version="1.1" id="Capa_1" x="0px" y="0px" viewBox="0 0 311 92" style="enable-background:new 0 0 311 92;" xml:space="preserve">
<path d="M305,36.9c-4.5-22.2-26.2-36.5-48.4-31.9c-22.2,4.5-36.5,26.2-31.9,48.4c4.5,22.2,26.2,36.5,48.4,31.9  C295.2,80.7,309.5,59.1,305,36.9 M271.5,77.8c-18.1,3.7-35.7-8-39.4-26c-3.7-18.1,8-35.7,26-39.4c18.1-3.7,35.7,8,39.4,26  C301.2,56.5,289.6,74.1,271.5,77.8"/>
<path d="M273.5,60.5c-0.9,1.5-2.5,2.7-4.8,3.7c-2.2,1-4.6,1.4-7.1,1.4c-4.6,0-8.2-1.1-10.9-3.5c-2.6-2.3-4-5.6-4-9.8  c0-5,1.9-8.8,5.6-11.7c3.7-2.8,9-4.2,15.9-4.2c1.2,0,2.6,0.2,4.2,0.6c0-5-3.2-7.6-9.5-7.6c-3.7,0-6.9,0.6-9.4,1.9l-2.2-7.8  c3.4-1.6,7.5-2.5,12.3-2.5c6.5,0,11.3,1.5,14.3,4.5c3,3,4.6,8.6,4.6,16.9v9.1c0,5.7,1.1,9.3,3.5,10.8c-0.8,1.5-1.8,2.4-2.8,2.7  c-1,0.3-2.2,0.5-3.5,0.5c-1.4,0-2.7-0.5-3.9-1.6C274.7,63,273.9,61.8,273.5,60.5 M272.5,44.7c-1.7-0.3-3-0.5-3.8-0.5  c-7.9,0-11.9,2.6-11.9,7.8c0,3.8,2.2,5.8,6.7,5.8c6,0,9-3,9-9V44.7z"/>
<path d="M26.9,54V29.8h3.8v23.5c0,1.2,0.3,2.1,1,2.7c0.7,0.7,1.5,1,2.6,1v3.4C29.4,60.4,26.9,58.3,26.9,54"/>
<path d="M52.3,60.4v-2c-1.3,1.3-3.2,2-5.8,2c-2.7,0-4.9-1-6.5-2.9c-1.7-1.9-2.5-4.6-2.5-7.8c0-7.8,6.2-11.2,9.8-11.2  c2.2,0,3.9,0.5,5.1,1.5V29.7h3.8v30.7H52.3z M52.3,43.8c-1-1.4-2.3-2.2-3.9-2.2c-2,0-3.7,0.7-5,2.3c-1.3,1.5-1.9,3-1.9,5.4  c0,5.1,2.3,7.9,7.1,7.9c0.6,0,1.3-0.2,2.2-0.6c0.8-0.4,1.4-0.8,1.6-1.2V43.8z"/>
<path d="M73.6,58.1c-1.5,1.9-3.2,2.3-6.4,2.3c-1.7,0-3.7-0.6-5-1.8c-1.2-1.2-1.8-2.7-1.8-4.5c0-2.1,1-4,2.9-5.4  c1.9-1.5,4.3-2.2,7.2-2.2c0.8,0,1.7,0.2,2.7,0.5c0-3.4-1.5-5.2-4.6-5.2c-2.4,0-4.2,0.6-5.4,1.9l-1.6-3.2c0.7-0.6,1.7-1.1,3-1.5  c1.3-0.4,2.5-0.6,3.6-0.6c3.1,0,5.4,0.7,6.8,2.1c1.4,1.4,2.1,3.6,2.1,6.6v8.1c0,1.9,0.1,3.6,1.2,4.2c0,0-1.2,1.4-3,0.8  C74.5,59.9,74,59.1,73.6,58.1 M73.3,49.6c-1.2-0.2-2-0.4-2.5-0.4c-1.9,0-3.5,0.5-4.7,1.5c-1.2,1-1.8,2.1-1.8,3.5  c0,2.2,1.3,3.3,3.9,3.3c1.9,0,3.6-0.4,5.1-2.2V49.6z"/>
<path d="M18,58.1c-1.5,1.9-3.2,2.3-6.4,2.3c-1.7,0-3.7-0.6-5-1.8c-1.2-1.2-1.8-2.7-1.8-4.5c0-2.1,1-4,2.9-5.4  c1.9-1.5,4.3-2.2,7.3-2.2c0.8,0,1.7,0.2,2.7,0.5c0-3.4-1.5-5.2-4.6-5.2c-2.4,0-4.2,0.6-5.4,1.9l-1.6-3.2c0.7-0.6,1.7-1.1,3-1.5  c1.3-0.4,2.5-0.6,3.6-0.6c3.1,0,5.4,0.7,6.8,2.1c1.4,1.4,2.1,3.6,2.1,6.6v8.1c0,1.9,0.1,3.6,1.2,4.2c0,0-1.2,1.4-3,0.8  C18.8,59.9,18.3,59.1,18,58.1 M17.6,49.6c-1.2-0.2-2-0.4-2.5-0.4c-1.9,0-3.5,0.5-4.7,1.5c-1.2,1-1.8,2.1-1.8,3.5  c0,2.2,1.3,3.3,3.9,3.3c1.9,0,3.6-0.4,5.1-2.2V49.6z"/>
<path d="M81.8,58.8l1.3-3.6c2.1,1.4,3.8,2,5.2,2c2.3,0,3.5-1,3.5-2.9c0-1.4-1.1-2.6-3.4-3.6c-1.8-0.8-2.9-1.4-3.5-1.8  c-0.6-0.4-1.1-0.9-1.6-1.4c-0.5-0.5-0.8-1.1-1-1.7C82.1,45.3,82,44.7,82,44c0-1.7,0.6-3.1,1.9-4.1c1.3-1,3-1.5,5-1.5  c1.6,0,3.5,0.5,5.9,1.5l-1.1,3.5c-1.5-1.2-3-1.8-4.6-1.8c-0.9,0-1.7,0.2-2.3,0.6c-0.6,0.4-0.9,1-0.9,1.6c0,1.4,0.8,2.4,2.3,3.1  l2.7,1.2c1.7,0.7,2.9,1.6,3.6,2.6c0.8,1,1.1,2.2,1.1,3.6c0,1.9-0.7,3.4-2,4.5c-1.4,1.1-3.2,1.6-5.6,1.6C86,60.4,83.8,59.9,81.8,58.8  "/>
<path d="M136.5,43.2c-0.9-0.6-1.9-0.9-2.9-0.9c-1.2,0-2.2,0.5-3.1,1.6c-0.9,1.1-1.3,2.3-1.3,3.9v12.6h-5v-22h5v2.1  c1.4-1.6,3.3-2.4,5.6-2.4c1.7,0,3,0.3,3.9,0.8L136.5,43.2z"/>
<path d="M152.2,57.9c-0.4,0.7-1.2,1.4-2.4,1.8c-1.1,0.5-2.3,0.7-3.5,0.7c-2.3,0-4.1-0.6-5.4-1.7c-1.3-1.1-2-2.8-2-4.9  c0-2.5,0.9-4.4,2.8-5.8c1.9-1.4,4.5-2.1,7.9-2.1c0.6,0,1.3,0.1,2.1,0.3c0-2.5-1.6-3.8-4.8-3.8c-1.9,0-3.5,0.3-4.7,0.9l-1.1-3.9  c1.7-0.8,3.8-1.2,6.1-1.2c3.3,0,5.7,0.7,7.2,2.2c1.5,1.5,2.3,4.3,2.3,8.4v4.6c0,2.8,0.6,4.6,1.7,5.4c-0.4,0.7-0.9,1.2-1.4,1.3  c-0.5,0.2-1.1,0.3-1.8,0.3c-0.7,0-1.4-0.3-2-0.8C152.8,59.1,152.4,58.5,152.2,57.9 M151.8,50c-0.9-0.2-1.5-0.3-1.9-0.3  c-3.9,0-5.9,1.3-5.9,3.9c0,1.9,1.1,2.9,3.3,2.9c3,0,4.5-1.5,4.5-4.5V50z"/>
<path d="M116.8,41.2c-1.9-2-4.4-3-7.6-3c-1.6,0-3,0.4-4.4,1.2v-9.6h-5v30.6h5v-1.1c1.2,0.7,2.5,1.1,4.1,1.1c3.3,0,5.9-1,7.9-3.1  c1.9-2.1,2.9-4.9,2.9-8.5C119.7,45.7,118.7,43.1,116.8,41.2 M113,54.5c-1,1.1-2.7,1.7-5.1,1.7c-1.3,0-2.2-0.4-3-1.3V43.7  c0.8-0.8,1.9-1.3,3.4-1.3c4.2,0,6.2,2.2,6.2,6.5C114.5,51.5,114,53.3,113,54.5"/>
<path d="M184.5,48.8c0,3.6,1,6.4,2.9,8.5c1.9,2.1,4.5,3.1,7.9,3.1c1.6,0,2.9-0.4,4.1-1.1v1.1h5V29.8h-5v9.6  c-1.3-0.8-2.8-1.2-4.3-1.2c-3.1,0-5.7,1-7.6,3C185.4,43.1,184.5,45.7,184.5,48.8 M189.7,48.9c0-4.4,2.1-6.5,6.2-6.5  c1.5,0,2.6,0.4,3.4,1.3v11.2c-0.7,0.9-1.7,1.3-3,1.3c-2.4,0-4.1-0.6-5.1-1.7C190.2,53.3,189.7,51.5,189.7,48.9"/>
<path d="M178.7,40.5c-1.5-1.5-3.5-2.3-6-2.3c-2.4,0-4.2,0.7-5.5,2.1v-1.7h-5v21.9h5V44.5c0.5-0.6,1.1-1.1,1.9-1.5  c0.8-0.4,1.6-0.6,2.3-0.6c1.6,0,2.7,0.4,3.4,1.3c0.7,0.8,1.1,2.2,1.1,4v12.8h5V46.9C180.9,44.1,180.2,42,178.7,40.5"/>
</svg>